<?xml version="1.0" standalone="no"?>
<!DOCTYPE svg PUBLIC "-//W3C//DTD SVG 20010904//EN"
 "http://www.w3.org/TR/2001/REC-SVG-20010904/DTD/svg10.dtd">
<svg version="1.0" xmlns="http://www.w3.org/2000/svg"
 width="701.000000pt" height="289.000000pt" viewBox="0 0 701.000000 289.000000"
 preserveAspectRatio="xMidYMid meet">

<g transform="translate(0.000000,289.000000) scale(0.100000,-0.100000)"
fill="#000000" stroke="none">
<path d="M0 1445 l0 -1445 3505 0 3505 0 0 1445 0 1445 -3505 0 -3505 0 0
-1445z m3533 1364 c-5 -17 -2 -20 13 -17 11 2 18 11 18 21 -2 16 20 17 310 15
l311 -3 3 -377 2 -378 76 0 75 0 -3 -32 -3 -33 -779 -3 c-567 -1 -782 1 -792
9 -8 6 -14 22 -14 35 0 23 3 24 75 24 l75 0 0 373 c0 206 3 377 7 380 3 4 147
7 319 7 l312 0 -5 -21z m-2769 -1529 c79 -30 166 -112 166 -157 0 -17 -9 -42
-21 -57 -30 -38 -71 -35 -139 12 -67 47 -108 62 -172 62 -106 0 -185 -73 -158
-146 12 -32 85 -77 185 -115 249 -96 345 -186 345 -325 0 -100 -68 -204 -162
-244 -100 -43 -250 -36 -296 14 -32 34 -33 85 -1 117 19 19 28 20 94 14 112
-10 171 23 182 104 5 37 2 44 -31 75 -24 23 -72 48 -143 75 -140 54 -241 102
-280 135 -70 59 -98 188 -59 279 20 45 76 109 120 137 88 54 256 63 370 20z
m2318 0 c44 -13 68 -43 68 -85 0 -62 -51 -95 -147 -95 l-43 0 0 -110 0 -110
175 0 c186 0 215 -6 234 -47 18 -39 13 -63 -18 -94 l-29 -29 -181 0 -181 0 0
-115 0 -115 213 0 c209 0 214 -1 234 -22 29 -32 37 -65 24 -97 -23 -53 -36
-56 -296 -59 -132 -2 -255 0 -273 3 -19 3 -45 17 -58 30 l-24 24 0 433 c0 479
-1 468 63 487 44 13 194 13 239 1z m2065 -24 c28 -28 293 -590 293 -622 0 -38
-18 -64 -55 -80 -26 -11 -90 -14 -273 -14 l-239 0 -49 -103 c-40 -83 -55 -105
-82 -119 -59 -29 -122 10 -122 77 0 18 78 193 198 445 183 383 201 416 232
432 39 20 65 16 97 -16z m1210 2 c16 -18 18 -51 23 -397 l5 -376 78 -5 c69 -4
81 -8 97 -30 22 -28 26 -71 10 -101 -21 -38 -62 -49 -184 -49 -114 0 -116 1
-148 29 l-33 29 0 435 0 435 24 26 c36 39 95 41 128 4z m-4520 -7 c15 -15 134
-159 263 -319 129 -160 238 -291 243 -291 4 -1 7 64 7 144 0 190 11 215 96
215 24 0 43 -8 59 -25 l25 -24 0 -296 0 -296 -25 -24 c-38 -39 -86 -37 -130 5
-16 16 -136 160 -265 319 -129 160 -238 290 -242 290 -5 1 -8 -130 -8 -290 0
-189 -4 -297 -11 -311 -17 -31 -71 -50 -108 -37 -60 21 -61 26 -61 484 0 491
-2 482 92 484 28 1 43 -6 65 -28z m668 4 c56 -55 16 -145 -64 -145 -32 0 -44
6 -65 31 -30 35 -32 58 -11 99 17 33 27 38 78 39 28 1 45 -6 62 -24z m900 0
c56 -55 16 -145 -63 -145 -50 0 -86 36 -86 85 0 77 95 115 149 60z m406 -1
c23 -25 24 -31 27 -205 l4 -179 204 0 204 0 0 31 c0 59 35 98 87 99 89 1 93
-13 93 -344 0 -158 -4 -286 -10 -301 -6 -15 -24 -32 -45 -41 -31 -12 -39 -12
-70 0 -21 9 -39 26 -45 41 -6 15 -10 98 -10 186 l0 159 -204 0 -204 0 -4 -170
c-3 -168 -3 -170 -29 -196 -35 -34 -90 -36 -125 -3 l-24 22 0 437 c0 427 0
438 21 464 29 37 95 37 130 0z m589 6 c27 -27 35 -65 20 -101 -15 -35 -37 -49
-80 -49 -43 0 -65 14 -80 49 -25 62 14 121 80 121 26 0 47 -7 60 -20z m-3010
-315 l0 -85 -70 0 -70 0 0 85 0 85 70 0 70 0 0 -85z m4520 0 l0 -85 -70 0 -70
0 0 85 0 85 70 0 70 0 0 -85z m-5541 -370 c16 -8 34 -28 41 -46 12 -28 11 -36
-6 -67 -45 -84 -164 -56 -164 39 0 29 7 43 31 63 35 30 58 32 98 11z m5155
-117 c15 -13 29 -38 32 -55 6 -28 1 -38 -30 -69 -31 -31 -41 -36 -69 -30 -72
14 -102 102 -52 151 32 33 84 33 119 3z m1311 -3 c50 -49 20 -137 -51 -151
-25 -5 -38 0 -64 23 -26 23 -32 36 -32 68 0 76 93 115 147 60z m-5445 -70 l0
-85 -70 0 -70 0 0 85 0 85 70 0 70 0 0 -85z m4520 0 l0 -85 -70 0 -70 0 0 85
0 85 70 0 70 0 0 -85z"/>
<path d="M2940 2450 l0 -330 610 0 610 0 0 330 0 330 -610 0 -610 0 0 -330z
m133 273 c-7 -2 -21 -2 -30 0 -10 3 -4 5 12 5 17 0 24 -2 18 -5z m65 -30 c-21
-2 -55 -2 -75 0 -21 2 -4 4 37 4 41 0 58 -2 38 -4z m40 -40 c-26 -2 -71 -2
-100 0 -29 2 -8 3 47 3 55 0 79 -1 53 -3z m-41 -40 c-20 -2 -52 -2 -70 0 -17
2 0 4 38 4 39 0 53 -2 32 -4z m-64 -70 c-7 -2 -19 -2 -25 0 -7 3 -2 5 12 5 14
0 19 -2 13 -5z m0 -80 c-7 -2 -21 -2 -30 0 -10 3 -4 5 12 5 17 0 24 -2 18 -5z
m200 0 c-29 -2 -78 -2 -110 0 -32 2 -8 3 52 3 61 0 87 -1 58 -3z m130 0 c-7
-2 -21 -2 -30 0 -10 3 -4 5 12 5 17 0 24 -2 18 -5z m-330 -30 c-7 -2 -21 -2
-30 0 -10 3 -4 5 12 5 17 0 24 -2 18 -5z m295 0 c-49 -2 -127 -2 -175 0 -49 1
-9 3 87 3 96 0 136 -2 88 -3z m165 0 c-7 -2 -21 -2 -30 0 -10 3 -4 5 12 5 17
0 24 -2 18 -5z m-460 -40 c-7 -2 -21 -2 -30 0 -10 3 -4 5 12 5 17 0 24 -2 18
-5z m400 0 c-68 -2 -178 -2 -245 0 -68 1 -13 3 122 3 135 0 190 -2 123 -3z
m190 0 c-7 -2 -21 -2 -30 0 -10 3 -4 5 12 5 17 0 24 -2 18 -5z m-260 -30 c-67
-2 -179 -2 -250 0 -70 1 -15 3 122 3 138 0 195 -2 128 -3z m-330 -40 c-7 -2
-21 -2 -30 0 -10 3 -4 5 12 5 17 0 24 -2 18 -5z m350 0 c-56 -2 -151 -2 -210
0 -59 1 -13 3 102 3 116 0 164 -2 108 -3z m-305 -110 c-15 -2 -42 -2 -60 0
-18 2 -6 4 27 4 33 0 48 -2 33 -4z"/>
<path d="M3450 2035 c0 -12 17 -15 95 -15 78 0 95 3 95 15 0 12 -17 15 -95 15
-78 0 -95 -3 -95 -15z"/>
<path d="M5018 843 l-65 -138 130 -3 c71 -1 132 -1 134 2 5 4 -123 276 -130
276 -2 0 -33 -62 -69 -137z"/>
</g>
</svg>
